<svg width="16" height="17" viewBox="0 0 16 17" fill="none" xmlns="http://www.w3.org/2000/svg">
<path fill-rule="evenodd" clip-rule="evenodd" d="M7.99998 9.49996C8.70722 9.49996 9.3855 9.21901 9.8856 8.71891C10.3857 8.21881 10.6666 7.54054 10.6666 6.83329C10.6666 6.12605 10.3857 5.44777 9.8856 4.94767C9.3855 4.44758 8.70722 4.16663 7.99998 4.16663C7.29274 4.16663 6.61446 4.44758 6.11436 4.94767C5.61426 5.44777 5.33331 6.12605 5.33331 6.83329C5.33331 7.54054 5.61426 8.21881 6.11436 8.71891C6.61446 9.21901 7.29274 9.49996 7.99998 9.49996ZM7.99998 8.83329C8.26262 8.83329 8.5227 8.78156 8.76535 8.68105C9.008 8.58054 9.22848 8.43322 9.41419 8.24751C9.59991 8.06179 9.74723 7.84131 9.84774 7.59866C9.94825 7.35601 9.99998 7.09594 9.99998 6.83329C9.99998 6.57065 9.94825 6.31058 9.84774 6.06793C9.74723 5.82527 9.59991 5.6048 9.41419 5.41908C9.22848 5.23336 9.008 5.08604 8.76535 4.98553C8.5227 4.88502 8.26262 4.83329 7.99998 4.83329C7.46955 4.83329 6.96084 5.04401 6.58577 5.41908C6.21069 5.79415 5.99998 6.30286 5.99998 6.83329C5.99998 7.36373 6.21069 7.87243 6.58577 8.24751C6.96084 8.62258 7.46955 8.83329 7.99998 8.83329Z" fill="white"/>
<path fill-rule="evenodd" clip-rule="evenodd" d="M14.6666 8.49998C14.6666 12.182 11.682 15.1666 7.99998 15.1666C4.31798 15.1666 1.33331 12.182 1.33331 8.49998C1.33331 4.81798 4.31798 1.83331 7.99998 1.83331C11.682 1.83331 14.6666 4.81798 14.6666 8.49998ZM11.21 13.57C10.2503 14.1792 9.13668 14.5018 7.99998 14.5C6.83614 14.5018 5.69713 14.1635 4.72298 13.5266C4.64298 13.4266 4.56165 13.3233 4.47965 13.2166C4.38437 13.0917 4.33294 12.9388 4.33331 12.7816C4.33331 12.4226 4.59131 12.1216 4.93631 12.0713C7.21798 11.738 8.78898 11.7666 11.0736 12.083C11.2391 12.107 11.3903 12.19 11.4993 12.3168C11.6083 12.4435 11.6677 12.6055 11.6666 12.7726C11.6666 12.9326 11.6116 13.088 11.5123 13.2093C11.41 13.334 11.309 13.4543 11.21 13.57ZM12.3283 12.6553C12.275 12.0313 11.8013 11.5106 11.165 11.4226C8.82631 11.099 7.19165 11.068 4.83998 11.4116C4.19998 11.505 3.72831 12.0303 3.67231 12.656C2.59742 11.5397 1.99786 10.0497 1.99998 8.49998C1.99998 5.18631 4.68631 2.49998 7.99998 2.49998C11.3136 2.49998 14 5.18631 14 8.49998C14.0021 10.0493 13.4028 11.5391 12.3283 12.6553Z" fill="white"/>
</svg>
